<svg xmlns="http://www.w3.org/2000/svg"  viewBox="0 0 48 48" width="48px" height="48px"><radialGradient id="3ZiVhXF2zC5Hwg7NbMctDa" cx="30.146" cy="17.914" r="17.08" gradientUnits="userSpaceOnUse"><stop offset=".771" stop-color="#787f85"/><stop offset=".819" stop-color="#838a91"/><stop offset=".931" stop-color="#99a1aa"/><stop offset="1" stop-color="#a1aab3"/></radialGradient><path fill="url(#3ZiVhXF2zC5Hwg7NbMctDa)" d="M17.464,21.808l8.728,8.728L14.536,42.192c-2.41,2.41-6.318,2.41-8.728,0l0,0	c-2.41-2.41-2.41-6.318,0-8.728L17.464,21.808z"/><linearGradient id="3ZiVhXF2zC5Hwg7NbMctDb" x1="19.314" x2="38.806" y1="8.669" y2="28.161" gradientUnits="userSpaceOnUse"><stop offset="0" stop-color="#a1aab3"/><stop offset="1" stop-color="#8f979e"/></linearGradient><path fill="url(#3ZiVhXF2zC5Hwg7NbMctDb)" d="M36.883,19.304c-2.261,2.261-5.927,2.261-8.188,0c-2.261-2.261-2.261-5.927,0-8.188	c0.552-0.552,2.775-2.775,5.04-5.04c0.543-0.543,0.302-1.492-0.444-1.675c-1.836-0.452-3.811-0.546-5.866-0.159	c-6.026,1.136-10.725,6.178-11.35,12.279c-0.912,8.895,6.511,16.317,15.406,15.403c6.1-0.627,11.141-5.326,12.276-11.352	c0.387-2.054,0.292-4.028-0.159-5.864c-0.184-0.746-1.132-0.987-1.675-0.444C39.658,16.529,37.435,18.753,36.883,19.304z"/><linearGradient id="3ZiVhXF2zC5Hwg7NbMctDc" x1="12.789" x2="7.182" y1="40.789" y2="35.182" gradientUnits="userSpaceOnUse"><stop offset="0" stop-color="#fff"/><stop offset=".242" stop-color="#f2f2f2"/><stop offset="1" stop-color="#ccc"/></linearGradient><circle cx="10" cy="38" r="4" fill="url(#3ZiVhXF2zC5Hwg7NbMctDc)"/><linearGradient id="3ZiVhXF2zC5Hwg7NbMctDd" x1="8.129" x2="11.411" y1="36.129" y2="39.411" gradientUnits="userSpaceOnUse"><stop offset="0" stop-color="#0d61a9"/><stop offset=".363" stop-color="#0e5fa4"/><stop offset=".78" stop-color="#135796"/><stop offset="1" stop-color="#16528c"/></linearGradient><circle cx="10" cy="38" r="2" fill="url(#3ZiVhXF2zC5Hwg7NbMctDd)"/></svg>